<?xml version="1.0" encoding="UTF-8"?>
<svg xmlns="http://www.w3.org/2000/svg" xmlns:xlink="http://www.w3.org/1999/xlink" width="24px" height="18px" viewBox="0 0 24 18" version="1.1">
<g id="surface1">
<rect x="0" y="0" width="24" height="18" style="fill:rgb(89.019608%,3.921569%,9.019608%);fill-opacity:1;stroke:none;"/>
<path style=" stroke:none;fill-rule:evenodd;fill:rgb(100%,100%,100%);fill-opacity:1;" d="M 15.261719 9.28125 C 15.261719 11.761719 13.214844 13.777344 10.6875 13.777344 C 8.160156 13.777344 6.113281 11.761719 6.113281 9.277344 C 6.113281 6.792969 8.160156 4.785156 10.6875 4.785156 C 13.214844 4.785156 15.261719 6.800781 15.261719 9.28125 Z M 15.261719 9.28125 "/>
<path style=" stroke:none;fill-rule:evenodd;fill:rgb(89.019608%,3.921569%,9.019608%);fill-opacity:1;" d="M 15.488281 9.28125 C 15.488281 11.269531 13.851562 12.878906 11.832031 12.878906 C 9.808594 12.878906 8.171875 11.265625 8.171875 9.277344 C 8.171875 7.289062 9.808594 5.683594 11.832031 5.683594 C 13.851562 5.683594 15.492188 7.292969 15.492188 9.28125 Z M 15.488281 9.28125 "/>
<path style=" stroke:none;fill-rule:evenodd;fill:rgb(100%,100%,100%);fill-opacity:1;" d="M 16.152344 7.179688 L 16.113281 8.839844 L 14.566406 9.261719 L 16.097656 9.804688 L 16.058594 11.332031 L 17.050781 10.140625 L 18.558594 10.664062 L 17.691406 9.386719 L 18.75 8.113281 L 17.117188 8.566406 L 16.152344 7.175781 Z M 16.152344 7.179688 "/>
</g>
</svg>
